HIERARCHY
ROOT Hips
{
	OFFSET -32.860001 56.121803 44.745396
	CHANNELS 6 Xposition Yposition Zposition Zrotation Xrotation Yrotation
	JOINT Chest
	{
		OFFSET -0.637402 0.831600 5.390099
		CHANNELS 6 Xposition Yposition Zposition Zrotation Xrotation Yrotation
		JOINT Chest2
		{
			OFFSET 0.000000 0.000000 4.429901
			CHANNELS 6 Xposition Yposition Zposition Zrotation Xrotation Yrotation
			JOINT Neck
			{
				OFFSET 0.000000 0.000000 10.301395
				CHANNELS 6 Xposition Yposition Zposition Zrotation Xrotation Yrotation
				JOINT Head
				{
					OFFSET 0.000000 0.000000 2.173897
					CHANNELS 6 Xposition Yposition Zposition Zrotation Xrotation Yrotation
					End Site
					{
						OFFSET 0.000000 0.000000 8.298004
					}
				}
			}
			JOINT LeftCollar
			{
				OFFSET 2.142401 -0.572701 5.717800
				CHANNELS 6 Xposition Yposition Zposition Zrotation Xrotation Yrotation
				JOINT LeftShoulder
				{
					OFFSET 5.674000 0.000000 0.000000
					CHANNELS 6 Xposition Yposition Zposition Zrotation Xrotation Yrotation
					JOINT LeftElbow
					{
						OFFSET 0.000000 0.000000 -12.238701
						CHANNELS 6 Xposition Yposition Zposition Zrotation Xrotation Yrotation
						JOINT LeftWrist
						{
							OFFSET 0.000000 0.000000 -10.253700
							CHANNELS 6 Xposition Yposition Zposition Zrotation Xrotation Yrotation
							End Site
							{
								OFFSET 0.000000 0.000000 -2.173901
							}
						}
					}
				}
			}
			JOINT RightCollar
			{
				OFFSET -2.882599 -1.580101 6.695801
				CHANNELS 6 Xposition Yposition Zposition Zrotation Xrotation Yrotation
				JOINT RightShoulder
				{
					OFFSET -4.235600 0.000000 0.000000
					CHANNELS 6 Xposition Yposition Zposition Zrotation Xrotation Yrotation
					JOINT RightElbow
					{
						OFFSET 0.000000 0.000000 -10.709900
						CHANNELS 6 Xposition Yposition Zposition Zrotation Xrotation Yrotation
						JOINT RightWrist
						{
							OFFSET 0.000000 0.000000 -11.716801
							CHANNELS 6 Xposition Yposition Zposition Zrotation Xrotation Yrotation
							End Site
							{
								OFFSET 0.000000 0.000000 -2.173901
							}
						}
					}
				}
			}
		}
	}
	JOINT LeftHip
	{
		OFFSET 2.279499 0.210400 -2.475502
		CHANNELS 6 Xposition Yposition Zposition Zrotation Xrotation Yrotation
		JOINT LeftKnee
		{
			OFFSET 0.000000 -0.000004 -20.742800
			CHANNELS 6 Xposition Yposition Zposition Zrotation Xrotation Yrotation
			JOINT LeftAnkle
			{
				OFFSET 0.000000 0.000000 -16.666000
				CHANNELS 6 Xposition Yposition Zposition Zrotation Xrotation Yrotation
				End Site
				{
					OFFSET 0.000000 -8.310898 0.000000
				}
			}
		}
	}
	JOINT RightHip
	{
		OFFSET -1.961899 0.232300 -2.727402
		CHANNELS 6 Xposition Yposition Zposition Zrotation Xrotation Yrotation
		JOINT RightKnee
		{
			OFFSET 0.000000 -0.000004 -20.526800
			CHANNELS 6 Xposition Yposition Zposition Zrotation Xrotation Yrotation
			JOINT RightAnkle
			{
				OFFSET 0.000000 0.000000 -16.867300
				CHANNELS 6 Xposition Yposition Zposition Zrotation Xrotation Yrotation
				End Site
				{
					OFFSET 0.000000 -7.186401 0.000000
				}
			}
		}
	}
}
MOTION
Frames: 5
Frame Time: 0.041667
24.692711 -39.997009 38.578091 6050.922069 9.519477 9.391838 -0.637404 0.831597 5.390101 -5.806848 -1.271033 9.164486 -0.000006 0.000005 4.429893 1.501143 -4.285445 -0.316148 0.000002 -0.000003 10.301398 418.338158 -8.343791 -12.863442 -0.000005 -0.000005 2.173898 -356.335231 1.433180 5.972950 2.142402 -0.572701 5.717800 4.623199 -4.357670 -7.924105 5.674012 -0.000002 -0.000004 1788.456402 -714.451010 -813.331604 -0.000009 0.000002 -12.238694 -632.824075 -177.905145 -292.053753 -0.000001 0.000002 -10.253698 1563.385714 185.288853 558.115412 -2.882602 -1.580092 6.695792 -8.510489 -6.659971 16.755142 -4.235607 0.000006 -0.000007 -2154.265706 298.732093 -614.986463 0.000010 0.000004 -10.709896 480.563586 -157.902595 151.290712 -0.000002 -0.000012 -11.716795 -187.116816 -5.326881 -40.624288 2.279490 0.210402 -2.475498 864.421146 -24.300266 71.122746 -0.000005 -0.000009 -20.742804 -1650.180807 136.587937 -206.735046 -0.000001 0.000008 -16.666000 1424.793853 9.356710 5.797012 -1.961900 0.232300 -2.727397 -1125.412127 -33.743546 -30.524580 0.000005 -0.000004 -20.526798 997.266413 121.294133 -254.184370 0.000003 -0.000002 -16.867300 -36.106443 1.455990 -15.166454
24.700909 -39.996391 38.581291 6050.927751 9.491838 9.405015 -0.637414 0.831595 5.390100 -5.761266 -1.229811 9.140494 -0.000002 0.000002 4.429900 1.502639 -4.322314 -0.317749 0.000001 0.000005 10.301393 418.259830 -8.301671 -12.866270 0.000007 -0.000005 2.173892 -356.309768 1.431539 5.924702 2.142396 -0.572701 5.717799 4.515782 -4.299797 -7.805782 5.673999 -0.000000 -0.000009 1788.420994 -714.575702 -813.394388 0.000004 0.000005 -12.238705 -632.730966 -178.196931 -292.037879 -0.000009 0.000001 -10.253698 1563.719792 185.318660 558.102407 -2.882607 -1.580095 6.695794 -8.624245 -6.707031 16.639808 -4.235611 0.000002 0.000004 -2153.936765 298.758321 -614.751777 0.000001 0.000002 -10.709898 480.469821 -157.923973 151.277038 -0.000001 -0.000007 -11.716798 -187.018543 -5.320842 -40.637788 2.279480 0.210399 -2.475501 864.331479 -24.451886 71.060749 -0.000002 -0.000011 -20.742798 -1651.889228 135.761389 -205.577861 0.000001 0.000000 -16.665998 1426.694832 8.965857 5.413354 -1.961902 0.232293 -2.727399 -1125.323827 -33.732696 -30.457057 0.000007 -0.000009 -20.526800 997.174069 121.366465 -254.143252 0.000012 -0.000003 -16.867298 -36.150443 1.475095 -15.183512
24.709007 -39.995811 38.585094 6050.914200 9.488488 9.411008 -0.637400 0.831598 5.390094 -5.706144 -1.220999 9.124478 -0.000000 0.000000 4.429901 1.502570 -4.354466 -0.319388 -0.000001 -0.000005 10.301399 418.209478 -8.257430 -12.860003 0.000003 -0.000002 2.173892 -356.304359 1.434638 5.885818 2.142396 -0.572704 5.717803 4.434682 -4.250476 -7.705459 5.674007 0.000004 -0.000004 1788.377172 -714.683455 -813.445914 -0.000000 -0.000001 -12.238701 -632.621902 -178.537129 -292.042934 -0.000004 0.000007 -10.253695 1564.102610 185.347606 558.049186 -2.882606 -1.580101 6.695792 -8.741735 -6.786386 16.590084 -4.235601 0.000001 -0.000009 -2153.726723 298.783675 -614.668613 0.000008 0.000004 -10.709900 480.383487 -157.935584 151.253802 -0.000000 0.000001 -11.716810 -186.907075 -5.309158 -40.621266 2.279506 0.210405 -2.475507 864.272576 -24.552450 71.009625 -0.000002 -0.000008 -20.742802 -1652.327781 135.562425 -205.221366 -0.000002 0.000004 -16.666000 1427.243105 8.851041 5.354790 -1.961894 0.232304 -2.727402 -1125.252683 -33.741155 -30.406124 0.000002 -0.000006 -20.526802 997.084785 121.435887 -254.097107 -0.000003 -0.000004 -16.867296 -36.185533 1.496226 -15.173520
24.716816 -39.995003 38.589188 6050.884038 9.506639 9.416569 -0.637407 0.831599 5.390102 -5.667174 -1.243452 9.105544 -0.000002 -0.000003 4.429902 1.512076 -4.382204 -0.321410 0.000000 0.000000 10.301388 418.206281 -8.226992 -12.834019 0.000003 -0.000001 2.173905 -356.310615 1.431862 5.860263 2.142394 -0.572699 5.717793 4.412724 -4.216813 -7.628080 5.674000 0.000002 -0.000003 1788.307777 -714.770499 -813.475639 -0.000001 0.000003 -12.238703 -632.513111 -178.884813 -292.073205 -0.000001 0.000001 -10.253697 1564.490237 185.371607 557.958918 -2.882607 -1.580089 6.695791 -8.844074 -6.872571 16.616561 -4.235611 0.000004 -0.000006 -2153.637766 298.763648 -614.726861 0.000007 0.000000 -10.709898 480.334966 -157.938084 151.231398 0.000001 -0.000006 -11.716801 -186.760103 -5.285791 -40.506806 2.279492 0.210402 -2.475499 864.245911 -24.608675 70.976778 -0.000005 -0.000006 -20.742802 -1651.947148 135.746376 -205.394853 0.000001 0.000006 -16.666000 1426.948040 8.908790 5.484125 -1.961897 0.232298 -2.727397 -1125.211812 -33.758374 -30.380678 0.000001 -0.000015 -20.526791 997.008396 121.501197 -254.048367 0.000005 -0.000001 -16.867300 -36.216036 1.525145 -15.139358
24.724312 -39.994110 38.593895 6050.848193 9.540564 9.420561 -0.637400 0.831599 5.390095 -5.654014 -1.284578 9.083717 -0.000009 -0.000001 4.429905 1.532914 -4.408345 -0.323997 -0.000002 -0.000001 10.301397 418.238629 -8.205046 -12.787980 0.000002 -0.000008 2.173911 -356.330341 1.430040 5.838096 2.142392 -0.572700 5.717800 4.456075 -4.204250 -7.567068 5.674007 0.000002 -0.000009 1788.204614 -714.838965 -813.485748 0.000003 0.000004 -12.238709 -632.427870 -179.187896 -292.122054 -0.000004 -0.000001 -10.253694 1564.831747 185.376853 557.850728 -2.882607 -1.580096 6.695789 -8.936127 -6.960313 16.686553 -4.235604 -0.000003 -0.000003 -2153.597331 298.702368 -614.845925 0.000009 0.000002 -10.709902 480.326606 -157.934109 151.224049 0.000000 -0.000015 -11.716799 -186.605358 -5.284599 -40.329009 2.279498 0.210401 -2.475505 864.234327 -24.637360 70.955461 -0.000003 -0.000007 -20.742798 -1651.280850 136.066029 -205.751977 -0.000003 0.000004 -16.665998 1426.358131 9.025783 5.672712 -1.961895 0.232306 -2.727401 -1125.213779 -33.778967 -30.382140 0.000004 -0.000007 -20.526798 996.950804 121.550306 -253.998015 -0.000003 -0.000003 -16.867300 -36.234584 1.561078 -15.082449
